<?xml version="1.0" standalone="no"?>
<!DOCTYPE svg PUBLIC "-//W3C//DTD SVG 20010904//EN"
 "http://www.w3.org/TR/2001/REC-SVG-20010904/DTD/svg10.dtd">
<svg version="1.0" xmlns="http://www.w3.org/2000/svg"
 width="288.000000pt" height="288.000000pt" viewBox="0 0 288.000000 288.000000"
 preserveAspectRatio="xMidYMid meet">
<metadata>
Created by potrace 1.14, written by Peter Selinger 2001-2017
</metadata>
<g transform="translate(0.000000,288.000000) scale(0.100000,-0.100000)"
fill="#000000" stroke="none">
<path d="M0 1440 l0 -1440 1440 0 1440 0 0 1440 0 1440 -1440 0 -1440 0 0
-1440z m2108 1087 c34 -32 31 -91 -8 -125 -26 -23 -30 -34 -30 -76 l0 -49 50
47 c76 71 146 100 253 104 l88 4 -3 -148 -3 -148 -43 -8 c-127 -21 -170 -117
-159 -348 3 -63 11 -133 18 -155 16 -57 83 -121 143 -136 42 -10 47 -14 44
-36 -2 -20 -14 -29 -52 -44 -57 -21 -100 -59 -127 -110 -15 -31 -18 -62 -19
-203 -2 -152 0 -170 20 -211 25 -51 63 -82 123 -100 l42 -12 0 -144 0 -144
-41 -3 c-52 -4 -161 21 -217 49 -23 12 -59 37 -79 57 l-38 36 0 -58 c0 -52 3
-61 30 -86 62 -58 26 -155 -57 -153 -79 2 -112 98 -53 153 25 23 30 36 30 75
l0 46 -57 -41 c-100 -72 -278 -107 -303 -60 -6 12 -9 70 -8 147 l3 127 49 12
c60 15 94 40 121 85 17 29 20 56 23 196 l4 163 -90 0 -90 0 -30 -53 c-45 -79
-131 -147 -187 -147 -9 0 -28 -13 -42 -30 -42 -50 -118 -40 -143 19 -38 93 70
162 142 90 22 -22 37 -29 53 -25 38 10 99 62 123 104 l23 42 -270 0 c-148 0
-272 -3 -274 -7 -9 -15 11 -259 24 -303 16 -54 83 -125 127 -135 17 -3 35 -12
41 -18 5 -7 13 -74 17 -150 l7 -137 -64 0 c-116 0 -240 49 -304 120 -25 27
-31 26 -67 -16 -58 -65 -166 -104 -292 -104 -70 0 -76 5 -76 64 0 30 2 33 25
28 31 -6 55 13 55 44 0 33 24 30 50 -6 24 -34 54 -39 82 -13 14 12 18 31 18
84 0 39 5 71 11 75 6 3 29 1 50 -6 31 -11 41 -11 54 0 24 20 18 56 -16 95
l-32 36 23 24 c14 15 27 45 31 73 4 26 11 61 14 77 l6 30 -15 -32 c-15 -32
-30 -40 -91 -45 -22 -2 -31 -9 -33 -25 -2 -13 -7 -23 -11 -23 -22 0 -29 35
-33 150 -4 88 -10 138 -23 168 -19 48 -81 106 -132 124 -26 9 -33 18 -33 38 0
22 8 31 40 45 52 24 115 93 130 142 8 26 11 93 8 194 -3 133 -7 159 -25 195
-28 52 -82 100 -125 109 -18 4 -36 13 -40 19 -4 6 -8 73 -8 148 0 129 1 138
21 148 29 16 144 2 199 -24 44 -20 129 -96 163 -146 10 -14 20 -20 22 -15 33
69 100 127 183 157 28 10 80 17 130 17 l82 1 0 -149 0 -148 -60 -22 c-109 -40
-133 -97 -128 -306 l3 -140 380 0 380 0 3 68 c2 51 6 67 18 67 27 0 92 -39
134 -80 34 -34 40 -43 30 -56 -12 -14 -10 -58 5 -131 4 -18 -6 -5 -27 32 -34
62 -64 79 -94 55 -32 -27 -17 -59 49 -100 70 -45 67 -49 -12 -19 -64 24 -98
19 -107 -16 -13 -51 34 -68 119 -44 57 16 54 7 -11 -27 -59 -30 -76 -60 -52
-90 26 -30 58 -17 96 41 20 30 38 55 40 55 3 0 -10 -46 -25 -85 -16 -40 -6
-73 24 -81 50 -13 66 30 45 121 -13 59 -4 55 25 -8 27 -62 48 -79 83 -66 16 6
22 16 22 38 0 26 -8 36 -55 66 -30 19 -55 37 -55 40 0 3 24 -4 53 -15 81 -31
117 -23 117 26 0 40 -24 49 -94 36 -94 -18 -98 -15 -23 20 39 18 67 38 68 47
3 45 -9 61 -49 61 -16 0 -31 -14 -54 -52 -35 -56 -48 -52 -24 7 22 53 20 70
-13 97 l-29 23 10 155 c9 134 8 160 -5 193 -19 45 -47 49 -75 10 l-20 -27 -5
40 c-3 21 -9 64 -12 96 -8 74 -42 140 -78 152 -35 13 -49 -1 -56 -56 l-6 -43
-30 60 c-24 48 -38 64 -72 80 -37 18 -42 24 -43 54 l0 34 74 -5 c87 -6 198
-53 259 -110 l37 -35 0 48 c0 38 -4 49 -18 54 -42 13 -54 87 -22 128 32 40 86
42 128 4z"/>
<path d="M2013 2484 c-8 -22 10 -49 32 -49 10 0 22 7 28 16 15 24 1 49 -28 49
-15 0 -28 -7 -32 -16z"/>
<path d="M856 1664 c-20 -19 -20 -34 -1 -104 8 -30 13 -56 11 -58 -2 -2 -19
25 -38 60 -26 50 -38 64 -59 66 -14 2 -31 -4 -38 -12 -23 -28 -4 -61 54 -97
30 -18 53 -34 51 -36 -1 -2 -29 6 -61 17 -74 25 -81 25 -100 -4 -13 -20 -14
-29 -5 -47 13 -23 12 -23 135 -4 38 5 38 4 -25 -27 -68 -35 -85 -63 -59 -94
24 -29 62 -12 98 43 19 29 36 51 38 49 2 -1 -6 -29 -17 -61 -18 -53 -19 -60
-5 -82 20 -29 50 -30 69 0 13 19 13 30 1 82 -7 33 -12 61 -10 63 2 2 17 -23
34 -56 37 -73 76 -89 101 -41 15 28 -1 52 -61 89 -28 17 -49 33 -47 35 2 2 31
-6 66 -18 71 -25 97 -18 97 28 0 44 -23 52 -99 33 -36 -8 -66 -12 -66 -8 0 4
27 19 59 34 63 28 80 51 61 86 -11 20 -45 26 -66 12 -6 -4 -26 -31 -44 -60
-18 -29 -34 -51 -36 -49 -2 2 5 27 16 55 25 66 25 98 1 112 -27 14 -37 13 -55
-6z"/>
<path d="M1320 1075 c-18 -22 -1 -50 31 -50 20 0 24 5 24 30 0 23 -5 31 -21
33 -11 2 -27 -4 -34 -13z"/>
<path d="M2020 435 c-20 -25 -8 -50 25 -50 21 0 31 5 33 18 4 21 -14 47 -33
47 -7 0 -18 -7 -25 -15z"/>
</g>
</svg>
